<svg xmlns="http://www.w3.org/2000/svg" fill="white" data-name="Layer 1" viewBox="0 0 128 128"><path d="M73.44,64.79c-1.39-1.62-4.3-4-8.9-7.31-1.77-1.27-5.37-3.88-8-5.77L54.22,50a19.29,19.29,0,0,0-1.32,1.7,8.24,8.24,0,0,0,.18,9.49,35.23,35.23,0,0,0,5.43,5.57c.61.47,4.64,3.43,9.65,7.1l2.25,1.65c1.34,1,2.57,1.9,3.49,2.54,2.42-2.81,2.87-4.38,2.87-6.4S76.44,68.27,73.44,64.79Z"/><path d="M74.6,126.33a24.74,24.74,0,0,0,10.46-6.24,17.42,17.42,0,0,0,4.29-5.66,21.51,21.51,0,0,0,2.29-10c0-6.84-2.24-11.93-8-18,5.45-4.21,9.32-9,10.94-13.64,3.61-10.44.19-20.32-10.45-30.23A84.06,84.06,0,0,0,70.3,32.32c-8.11-5.12-11.45-7.86-12.72-10.43-1.77-3.55-1.23-5.91,1.86-8.16a7,7,0,0,1,4.76-1.36H65c1.9.07,2,.12,2.49.37,1.37.69,1.37,1.5,1.37,1.8a24.4,24.4,0,0,1-.34,2.74c-.57,3.14-.63,4.52.12,7,1.32,4.39,5.76,7.47,10.78,7.47a11.63,11.63,0,0,0,5-1.13c4.24-2.07,6.54-6,6.5-11,0-4.44-2-8.48-6.07-12.34C80,2.65,72.67,0,64.63,0a37.47,37.47,0,0,0-3.8.19A28.69,28.69,0,0,0,40.91,10.8a21.42,21.42,0,0,0-4.5,16.49c.8,5.24,3.28,9.74,8,14.53-4.71,4-7.86,7.91-9.89,12.22-2.13,4.49-3,9.3-2.3,13.17.87,5.16,3.6,10,8.6,15.22s10.18,9.21,18,14c12.68,7.87,13.15,10.15,12.92,13.81a4.4,4.4,0,0,1-1.55,3.22c-1.41,1.31-3,2.06-6.74,2.06h-.19c-3.11,0-3.54-.45-4.07-1a10.36,10.36,0,0,1,.45-2.26.14.14,0,0,0,0-.06c1-3.13,1.45-5.76.5-8.36a11.87,11.87,0,0,0-5.69-6.29,8.55,8.55,0,0,0-4.28-1.07c-.36,0-.76,0-1.34,0a10.39,10.39,0,0,0-7.75,3.18c-2.55,2.51-3.49,4.86-3.49,8.7a15.07,15.07,0,0,0,.7,5.09c2.18,6.43,8.22,11.6,15.77,13.5a37.67,37.67,0,0,0,9,1A38.85,38.85,0,0,0,74.6,126.33ZM65.8,77.14c-4.62-3.38-9-6.61-9.72-7.16a37.11,37.11,0,0,1-6.31-6.5,12.26,12.26,0,0,1-.21-13.93C50.75,47.76,53.31,45,53.81,45a57,57,0,0,1,5.1,3.43l8,5.78c5,3.56,8,6.06,9.59,7.94,3.3,3.82,4.3,6.06,4.3,9.52S79.66,77.61,76.68,81c-1,1.12-1.39,1.85-2.17,1.85C73.39,82.84,71.47,81.29,65.8,77.14Z"/></svg>