<svg xmlns="http://www.w3.org/2000/svg" enable-background="new 0 0 32 32" viewBox="0 0 32 32"><path d="M18.1203,2.3089l-1.74127,9.01654l2.16156,2.1015c0.45032,0.4303,0.58044,1.10077,0.33026,1.68121l-2.34174,5.29388c-0.25018,0.56036-0.8006,0.90057-1.37097,0.90057c-0.2002,0-0.41028-0.04999-0.61047-0.13007c-0.75055-0.34021-1.10077-1.22089-0.76056-1.98145l1.91144-4.34314l-1.99152-1.9314c-0.36023-0.36029-0.52032-0.87067-0.4303-1.36102l1.67126-8.7063c-1.41107-0.78052-3.02222-1.20087-4.68341-1.20087c-2.61194,0-5.07367,1.01074-6.92505,2.86212c-3.7027,3.71265-3.79272,9.77704-0.22015,13.58978c0.09009,0.11017,0.1701,0.19019,0.22015,0.25018L14.91797,29.9389c0.29016,0.28021,0.67047,0.44031,1.0708,0.44031c0.39026,0,0.77057-0.1601,1.06073-0.44031l11.58844-11.58844c0.05005-0.06,0.13013-0.14001,0.22015-0.25018C30.55933,16.289,31.5,13.92731,31.5,11.43549c0-2.62189-1.02075-5.07367-2.86206-6.92499C25.77588,1.64838,21.64288,0.90784,18.1203,2.3089z"/></svg>